<svg xmlns="http://www.w3.org/2000/svg" width="1536" height="722" style="cursor: move;"><g><path class="link" marker-end="url(#arrow)" d="M680,311, 788,291" style="stroke-width: 0.62; stroke-opacity: 1; stroke: rgb(80, 80, 80);"></path><path class="link" marker-end="url(#arrow)" d="M680,311, 788,331" style="stroke-width: 0.62; stroke-opacity: 1; stroke: rgb(80, 80, 80);"></path><path class="link" marker-end="url(#arrow)" d="M680,311, 788,371" style="stroke-width: 0.62; stroke-opacity: 1; stroke: rgb(80, 80, 80);"></path><path class="link" marker-end="url(#arrow)" d="M680,311, 788,411" style="stroke-width: 0.62; stroke-opacity: 1; stroke: rgb(80, 80, 80);"></path><path class="link" marker-end="url(#arrow)" d="M680,351, 788,291" style="stroke-width: 0.62; stroke-opacity: 1; stroke: rgb(80, 80, 80);"></path><path class="link" marker-end="url(#arrow)" d="M680,351, 788,331" style="stroke-width: 0.62; stroke-opacity: 1; stroke: rgb(80, 80, 80);"></path><path class="link" marker-end="url(#arrow)" d="M680,351, 788,371" style="stroke-width: 0.62; stroke-opacity: 1; stroke: rgb(80, 80, 80);"></path><path class="link" marker-end="url(#arrow)" d="M680,351, 788,411" style="stroke-width: 0.62; stroke-opacity: 1; stroke: rgb(80, 80, 80);"></path><path class="link" marker-end="url(#arrow)" d="M680,391, 788,291" style="stroke-width: 0.62; stroke-opacity: 1; stroke: rgb(80, 80, 80);"></path><path class="link" marker-end="url(#arrow)" d="M680,391, 788,331" style="stroke-width: 0.62; stroke-opacity: 1; stroke: rgb(80, 80, 80);"></path><path class="link" marker-end="url(#arrow)" d="M680,391, 788,371" style="stroke-width: 0.62; stroke-opacity: 1; stroke: rgb(80, 80, 80);"></path><path class="link" marker-end="url(#arrow)" d="M680,391, 788,411" style="stroke-width: 0.62; stroke-opacity: 1; stroke: rgb(80, 80, 80);"></path><path class="link" marker-end="url(#arrow)" d="M788,291, 896,311" style="stroke-width: 0.62; stroke-opacity: 1; stroke: rgb(80, 80, 80);"></path><path class="link" marker-end="url(#arrow)" d="M788,291, 896,351" style="stroke-width: 0.62; stroke-opacity: 1; stroke: rgb(80, 80, 80);"></path><path class="link" marker-end="url(#arrow)" d="M788,291, 896,391" style="stroke-width: 0.62; stroke-opacity: 1; stroke: rgb(80, 80, 80);"></path><path class="link" marker-end="url(#arrow)" d="M788,331, 896,311" style="stroke-width: 0.62; stroke-opacity: 1; stroke: rgb(80, 80, 80);"></path><path class="link" marker-end="url(#arrow)" d="M788,331, 896,351" style="stroke-width: 0.62; stroke-opacity: 1; stroke: rgb(80, 80, 80);"></path><path class="link" marker-end="url(#arrow)" d="M788,331, 896,391" style="stroke-width: 0.62; stroke-opacity: 1; stroke: rgb(80, 80, 80);"></path><path class="link" marker-end="url(#arrow)" d="M788,371, 896,311" style="stroke-width: 0.62; stroke-opacity: 1; stroke: rgb(80, 80, 80);"></path><path class="link" marker-end="url(#arrow)" d="M788,371, 896,351" style="stroke-width: 0.62; stroke-opacity: 1; stroke: rgb(80, 80, 80);"></path><path class="link" marker-end="url(#arrow)" d="M788,371, 896,391" style="stroke-width: 0.62; stroke-opacity: 1; stroke: rgb(80, 80, 80);"></path><path class="link" marker-end="url(#arrow)" d="M788,411, 896,311" style="stroke-width: 0.62; stroke-opacity: 1; stroke: rgb(80, 80, 80);"></path><path class="link" marker-end="url(#arrow)" d="M788,411, 896,351" style="stroke-width: 0.62; stroke-opacity: 1; stroke: rgb(80, 80, 80);"></path><path class="link" marker-end="url(#arrow)" d="M788,411, 896,391" style="stroke-width: 0.62; stroke-opacity: 1; stroke: rgb(80, 80, 80);"></path><circle r="13.5" class="node" id="0_0" cx="680" cy="311" style="fill: rgb(0, 255, 255); stroke: rgb(51, 51, 51);"></circle><circle r="13.5" class="node" id="0_1" cx="680" cy="351" style="fill: rgb(0, 255, 255); stroke: rgb(51, 51, 51);"></circle><circle r="13.5" class="node" id="0_2" cx="680" cy="391" style="fill: rgb(0, 255, 255); stroke: rgb(51, 51, 51);"></circle><text class="text" dy=".35em" x="645" y="451" style="font-size: 12px;">Input Layer ∈ ℝ³</text><circle r="13.5" class="node" id="1_0" cx="788" cy="291" style="fill: rgb(0, 255, 255); stroke: rgb(51, 51, 51);"></circle><circle r="13.5" class="node" id="1_1" cx="788" cy="331" style="fill: rgb(0, 255, 255); stroke: rgb(51, 51, 51);"></circle><circle r="13.5" class="node" id="1_2" cx="788" cy="371" style="fill: rgb(0, 255, 255); stroke: rgb(51, 51, 51);"></circle><circle r="13.5" class="node" id="1_3" cx="788" cy="411" style="fill: rgb(0, 255, 255); stroke: rgb(51, 51, 51);"></circle><text class="text" dy=".35em" x="753" y="451" style="font-size: 12px;">Hidden Layer ∈ ℝ⁴</text><circle r="13.5" class="node" id="2_0" cx="896" cy="311" style="fill: rgb(0, 255, 255); stroke: rgb(51, 51, 51);"></circle><circle r="13.5" class="node" id="2_1" cx="896" cy="351" style="fill: rgb(0, 255, 255); stroke: rgb(51, 51, 51);"></circle><circle r="13.5" class="node" id="2_2" cx="896" cy="391" style="fill: rgb(0, 255, 255); stroke: rgb(51, 51, 51);"></circle><text class="text" dy=".35em" x="861" y="451" style="font-size: 12px;">Output Layer ∈ ℝ³</text></g><defs><marker id="arrow" viewBox="0 -5 10 10" markerWidth="7" markerHeight="7" orient="auto" refX="49.8"><path d="M0,-5L10,0L0,5" style="stroke: rgb(80, 80, 80); fill: rgb(80, 80, 80);"></path></marker></defs></svg>